<svg width="55" height="61" viewBox="0 0 55 61" fill="none" xmlns="http://www.w3.org/2000/svg">
<g filter="url(#filter0_d_42_9)">
<path d="M48.5417 18.121L29.4509 7.12098C29.1709 6.95967 28.829 6.95967 28.5491 7.12098L9.45818 18.121C9.17455 18.2842 9 18.5885 9 18.9167V39.0833C9 39.4115 9.17455 39.7158 9.45818 39.879L28.5491 50.879C28.6891 50.9597 28.8436 51 29 51C29.1564 51 29.3109 50.9597 29.4509 50.879L48.5418 39.879C48.8255 39.7158 49 39.4115 49 39.0833V18.9167C48.9999 18.5885 48.8254 18.2842 48.5417 18.121Z" fill="#7D53F8"/>
</g>
<g clip-path="url(#clip0_42_9)">
<path d="M35.6328 24.6954H34.4843V23.4648C34.4843 22.6571 33.871 22 33.1172 22H24.3672C23.6133 22 23 22.6571 23 23.4648V32.8398C23 33.6475 23.6133 34.3046 24.3672 34.3046H25.5156V35.5352C25.5156 36.3429 26.129 37 26.8828 37H35.6328C36.3867 37 37 36.3429 37 35.5352V26.1602C37 25.3525 36.3867 24.6954 35.6328 24.6954ZM24.3672 33.7187C23.9149 33.7187 23.5469 33.3245 23.5469 32.8398V23.4648C23.5469 22.9802 23.9149 22.5859 24.3672 22.5859H33.1172C33.5695 22.5859 33.9375 22.9802 33.9375 23.4648V32.8398C33.9375 33.3244 33.5695 33.7187 33.1172 33.7187H24.3672ZM36.4531 35.5352C36.4531 36.0198 36.0851 36.4141 35.6328 36.4141H26.8828C26.4305 36.4141 26.0625 36.0198 26.0625 35.5352V34.3046H33.1172C33.871 34.3046 34.4843 33.6475 34.4843 32.8398V25.2813H35.6328C36.0851 25.2813 36.4531 25.6756 36.4531 26.1602V35.5352Z" fill="white"/>
<path d="M26.8897 35.3887H26.8823C26.7313 35.3887 26.6089 35.5198 26.6089 35.6816C26.6089 35.8434 26.7313 35.9746 26.8823 35.9746H26.8897C27.0407 35.9746 27.1631 35.8434 27.1631 35.6816C27.1631 35.5198 27.0408 35.3887 26.8897 35.3887Z" fill="white"/>
<path d="M35.6335 35.3887H27.6753C27.5243 35.3887 27.4019 35.5198 27.4019 35.6816C27.4019 35.8434 27.5243 35.9746 27.6753 35.9746H35.6335C35.7845 35.9746 35.9069 35.8434 35.9069 35.6816C35.9069 35.5198 35.7845 35.3887 35.6335 35.3887Z" fill="white"/>
<path d="M26.0088 23.0254H26.0015C25.8504 23.0254 25.728 23.1566 25.728 23.3184C25.728 23.4802 25.8504 23.6113 26.0015 23.6113H26.0088C26.1599 23.6113 26.2823 23.4802 26.2823 23.3184C26.2823 23.1566 26.1599 23.0254 26.0088 23.0254Z" fill="white"/>
<path d="M25.2158 23.0254H24.3672C24.2162 23.0254 24.0938 23.1566 24.0938 23.3184C24.0938 23.4802 24.2162 23.6113 24.3672 23.6113H25.2158C25.3668 23.6113 25.4892 23.4802 25.4892 23.3184C25.4892 23.1566 25.3668 23.0254 25.2158 23.0254Z" fill="white"/>
<path d="M31.0252 27.8924C30.9602 27.6346 30.8054 27.4194 30.5898 27.2867L29.2522 26.4593C29.2388 26.4499 29.2252 26.441 29.2116 26.4326L27.8775 25.6072C27.7246 25.4993 27.547 25.4423 27.3631 25.4423C26.8471 25.4423 26.4272 25.892 26.4272 26.4449V29.8612C26.4272 29.8732 26.4279 29.8849 26.4292 29.8965C26.4346 30.06 26.4777 30.2205 26.5546 30.3629C26.7211 30.671 27.0312 30.8623 27.3637 30.8623C27.5274 30.8623 27.6891 30.8157 27.831 30.7276L29.2116 29.8735C29.2194 29.8687 29.227 29.8635 29.2342 29.858L30.58 29.0255C30.7269 28.9376 30.8491 28.8082 30.9334 28.6511C31.0575 28.4196 31.0901 28.1502 31.0252 27.8924ZM30.4593 28.3592C30.4242 28.4246 30.3734 28.4783 30.3125 28.5146C30.3111 28.5153 30.3098 28.5162 30.3084 28.517L28.9376 29.3649C28.9298 29.3697 28.9222 29.3749 28.915 29.3805L27.5572 30.2204C27.4982 30.257 27.4313 30.2764 27.3637 30.2764C27.2256 30.2764 27.0969 30.1971 27.0278 30.0693C26.9936 30.0059 26.9755 29.934 26.9756 29.8615C26.9756 29.8516 26.9751 29.8416 26.9741 29.8318V26.4449H26.9742C26.9742 26.2151 27.1487 26.0282 27.3631 26.0282C27.4411 26.0282 27.5161 26.0527 27.5801 26.099C27.5854 26.1028 27.5909 26.1065 27.5964 26.11L28.9388 26.9403C28.9455 26.9445 28.9519 26.9489 28.9583 26.9534C28.9629 26.9566 28.9675 26.9597 28.9722 26.9626L30.3169 27.7944C30.4063 27.8495 30.4703 27.9385 30.4972 28.0452C30.5241 28.1519 30.5106 28.2634 30.4593 28.3592Z" fill="white"/>
</g>
<path d="M28.5399 0.375334L28.4138 0.159471L28.5399 0.375334ZM28.5399 0.375334L26.4717 1.58366L26.3456 1.3678L22.2092 3.78447L22.3354 4.00033L18.199 6.41699L18.0729 6.20113L13.9365 8.61779L14.0626 8.83365L9.92629 11.2503L9.80017 11.0345L5.66382 13.4511L5.78993 13.667L3.72175 14.8753L3.72162 14.8754C3.43145 15.0447 3.25 15.3626 3.25 15.7083V17.9236H3V22.3542H3.25V26.7847H3V31.2153H3.25V35.6458H3V40.0764H3.25V42.2917C3.25 42.6374 3.43145 42.9553 3.72162 43.1246L3.72175 43.1247L5.78993 44.333L5.66381 44.5489L9.80017 46.9655L9.92629 46.7497L14.0626 49.1663L13.9365 49.3822L18.0729 51.7988L18.199 51.583L22.3354 53.9996L22.2092 54.2155L26.3456 56.6322L26.4717 56.4163L28.5399 57.6246L28.4202 57.8295L28.5399 57.6246C28.5753 57.6453 28.6115 57.6634 28.6482 57.6789L28.5511 57.9093C28.6466 57.9495 28.7459 57.9764 28.8468 57.9898L28.8798 57.742C28.9196 57.7473 28.9597 57.75 29 57.75C29.0403 57.75 29.0804 57.7473 29.1202 57.742L29.1532 57.9898C29.2541 57.9764 29.3534 57.9495 29.4489 57.9093L29.3518 57.6789C29.3885 57.6634 29.4247 57.6453 29.4601 57.6246L29.5804 57.8305L29.4601 57.6246L31.5283 56.4163L31.6544 56.6322L35.7908 54.2155L35.6646 53.9996L39.801 51.583L39.9271 51.7988L44.0635 49.3822L43.9374 49.1663L48.0737 46.7497L48.1998 46.9655L52.3362 44.5489L52.2101 44.333L54.2783 43.1247L54.2784 43.1246C54.5686 42.9553 54.75 42.6374 54.75 42.2917V40.0764H55V35.6458H54.75V31.2153H55V26.7847H54.75V22.3542H55V17.9236H54.75V15.7084C54.75 15.7084 54.75 15.7083 54.75 15.7083C54.75 15.6232 54.7389 15.5396 54.7179 15.4595L54.9598 15.3961C54.9059 15.1908 54.7999 15.0031 54.6525 14.8529L54.474 15.0279C54.4163 14.9691 54.3507 14.9177 54.2783 14.8754L54.4043 14.6595L54.2781 14.8753L52.21 13.667L52.3361 13.4511L48.1997 11.0345L48.0736 11.2503L43.9372 8.83365L44.0634 8.61779L39.927 6.20113L39.8009 6.41699L35.6645 4.00033L35.7906 3.78447L31.6543 1.3678L31.5282 1.58366L29.46 0.37533C29.1739 0.208222 28.8259 0.208222 28.5399 0.375334Z" stroke="white" stroke-width="0.5" stroke-dasharray="5 5"/>
<defs>
<filter id="filter0_d_42_9" x="0" y="3" width="54" height="58" filterUnits="userSpaceOnUse" color-interpolation-filters="sRGB">
<feFlood flood-opacity="0" result="BackgroundImageFix"/>
<feColorMatrix in="SourceAlpha" type="matrix" values="0 0 0 0 0 0 0 0 0 0 0 0 0 0 0 0 0 0 127 0" result="hardAlpha"/>
<feOffset dx="-2" dy="3"/>
<feGaussianBlur stdDeviation="3.5"/>
<feColorMatrix type="matrix" values="0 0 0 0 0 0 0 0 0 0 0 0 0 0 0 0 0 0 0.08 0"/>
<feBlend mode="normal" in2="BackgroundImageFix" result="effect1_dropShadow_42_9"/>
<feBlend mode="normal" in="SourceGraphic" in2="effect1_dropShadow_42_9" result="shape"/>
</filter>
<clipPath id="clip0_42_9">
<rect width="14" height="15" fill="white" transform="translate(23 22)"/>
</clipPath>
</defs>
</svg>
