<svg width="81" height="84" viewBox="0 0 81 84" fill="none" xmlns="http://www.w3.org/2000/svg">
<g filter="url(#filter0_d_14_1059)">
<ellipse cx="41.5" cy="40.5" rx="32.5" ry="33.5" fill="#00C5DE"/>
</g>
<circle cx="40.5" cy="40.5" r="40" stroke="#00C5DE" stroke-dasharray="5 5"/>
<g clip-path="url(#clip0_14_1059)">
<path d="M42 58C41.705 58 41.4277 57.8851 41.219 57.6765L37.2285 53.6861C37.197 53.6544 37.1551 53.6371 37.1105 53.6371H31.4672C30.8582 53.6371 30.3628 53.1418 30.3628 52.5328V46.8894C30.3628 46.8448 30.3455 46.8029 30.314 46.7714L26.3234 42.7809C25.8928 42.3503 25.8928 41.6497 26.3234 41.2191L30.314 37.2286C30.3455 37.1971 30.3628 37.1552 30.3628 37.1106V31.4672C30.3628 30.8582 30.8582 30.3629 31.4672 30.3629H37.1106C37.1552 30.3629 37.197 30.3456 37.2286 30.314L41.2191 26.3234C41.4277 26.1149 41.705 26 42 26C42.295 26 42.5723 26.1149 42.7809 26.3235L43.7805 27.3231C43.9636 27.5062 43.9636 27.8029 43.7805 27.986C43.5975 28.169 43.3007 28.169 43.1177 27.986L42.118 26.9864C42.0754 26.9439 42.0258 26.9375 42 26.9375C41.9742 26.9375 41.9245 26.9439 41.882 26.9863L37.8915 30.9769C37.6829 31.1855 37.4056 31.3004 37.1106 31.3004H31.4672C31.3752 31.3004 31.3003 31.3752 31.3003 31.4672V37.1106C31.3003 37.4056 31.1855 37.6829 30.9769 37.8916L26.9864 41.8821C26.9213 41.9471 26.9213 42.0529 26.9864 42.1181L30.9769 46.1085C31.1855 46.3171 31.3003 46.5944 31.3003 46.8894V52.5329C31.3003 52.6249 31.3752 52.6997 31.4672 52.6997H37.1106C37.4057 52.6997 37.683 52.8146 37.8916 53.0233L41.882 57.0137C41.9246 57.0562 41.9742 57.0626 42 57.0626C42.0259 57.0626 42.0755 57.0562 42.118 57.0138L46.1085 53.0232C46.317 52.8146 46.5944 52.6997 46.8894 52.6997H52.5329C52.6249 52.6997 52.6997 52.6249 52.6997 52.5329V46.8894C52.6997 46.5944 52.8145 46.3171 53.0231 46.1084L57.0136 42.1179C57.0787 42.0529 57.0787 41.9471 57.0136 41.8819L53.0231 37.8915C52.8145 37.6829 52.6997 37.4056 52.6997 37.1106V31.4672C52.6997 31.3752 52.6249 31.3004 52.5329 31.3004H46.8894C46.5944 31.3004 46.317 31.1855 46.1085 30.9769L44.6202 29.4886C44.4372 29.3055 44.4372 29.0087 44.6202 28.8257C44.8034 28.6427 45.1002 28.6427 45.2831 28.8257L46.7714 30.314C46.8029 30.3456 46.8448 30.3629 46.8894 30.3629H52.5328C53.1417 30.3629 53.6371 30.8582 53.6371 31.4672V37.1106C53.6371 37.1553 53.6545 37.1971 53.686 37.2286L57.6765 41.2191C58.107 41.6498 58.107 42.3504 57.6765 42.7809L53.6859 46.7715C53.6544 46.803 53.637 46.8449 53.637 46.8895V52.5329C53.637 53.1419 53.1417 53.6373 52.5327 53.6373H46.8894C46.8448 53.6373 46.803 53.6546 46.7715 53.6861L42.7809 57.6767C42.5723 57.8851 42.295 58 42 58Z" fill="white"/>
<path d="M36.4811 29.1448C36.2971 29.1448 36.1226 29.0358 36.0478 28.8553L35.3424 27.1523C35.2434 26.9132 35.3569 26.639 35.5961 26.5399C35.8354 26.441 36.1095 26.5543 36.2086 26.7936L36.9139 28.4965C37.013 28.7357 36.8994 29.0099 36.6603 29.109C36.6016 29.1333 36.5408 29.1448 36.4811 29.1448Z" fill="white"/>
<path d="M48.2247 57.4959C48.0408 57.4959 47.8662 57.387 47.7915 57.2064L47.0861 55.5034C46.987 55.2643 47.1006 54.9901 47.3398 54.891C47.579 54.792 47.8532 54.9054 47.9522 55.1447L48.6576 56.8476C48.7567 57.0868 48.6431 57.361 48.4039 57.4601C48.3452 57.4843 48.2845 57.4959 48.2247 57.4959Z" fill="white"/>
<path d="M35.7753 57.4959C35.7155 57.4959 35.6548 57.4844 35.5961 57.46C35.3569 57.361 35.2434 57.0868 35.3424 56.8476L36.0478 55.1447C36.1469 54.9055 36.421 54.7917 36.6603 54.891C36.8994 54.99 37.013 55.2642 36.9139 55.5034L36.2086 57.2064C36.1338 57.3868 35.9593 57.4959 35.7753 57.4959Z" fill="white"/>
<path d="M47.519 29.1449C47.4592 29.1449 47.3985 29.1334 47.3398 29.1091C47.1006 29.01 46.987 28.7358 47.0861 28.4966L47.7915 26.7937C47.8905 26.5546 48.1647 26.4408 48.4039 26.54C48.6431 26.6391 48.7567 26.9132 48.6576 27.1524L47.9522 28.8554C47.8775 29.0359 47.7029 29.1449 47.519 29.1449Z" fill="white"/>
<path d="M55.324 36.9499C55.1401 36.9499 54.9656 36.8409 54.8908 36.6604C54.7917 36.4212 54.9053 36.147 55.1445 36.0479L56.8474 35.3426C57.0865 35.2435 57.3608 35.357 57.4598 35.5963C57.5589 35.8354 57.4453 36.1096 57.2062 36.2087L55.5032 36.9141C55.4446 36.9384 55.3838 36.9499 55.324 36.9499Z" fill="white"/>
<path d="M26.973 48.6933C26.789 48.6933 26.6145 48.5843 26.5397 48.4038C26.4406 48.1646 26.5542 47.8904 26.7934 47.7913L28.4963 47.086C28.7355 46.987 29.0096 47.1004 29.1088 47.3396C29.2078 47.5788 29.0943 47.853 28.8551 47.9521L27.1521 48.6575C27.0935 48.6817 27.0328 48.6933 26.973 48.6933Z" fill="white"/>
<path d="M28.6755 36.9498C28.6157 36.9498 28.555 36.9383 28.4963 36.914L26.7934 36.2086C26.5542 36.1096 26.4406 35.8354 26.5397 35.5962C26.6388 35.3571 26.9131 35.2433 27.1521 35.3425L28.8551 36.0479C29.0943 36.1469 29.2078 36.4211 29.1088 36.6603C29.034 36.8408 28.8595 36.9498 28.6755 36.9498Z" fill="white"/>
<path d="M57.0266 48.6932C56.9668 48.6932 56.906 48.6817 56.8474 48.6574L55.1445 47.952C54.9053 47.853 54.7917 47.5788 54.8908 47.3396C54.9898 47.1005 55.2641 46.9867 55.5032 47.0859L57.2062 47.7913C57.4453 47.8903 57.5589 48.1645 57.4598 48.4037C57.3851 48.5842 57.2105 48.6932 57.0266 48.6932Z" fill="white"/>
<path d="M41.9998 50.9856C37.0451 50.9856 33.0142 46.9546 33.0142 42C33.0142 37.0453 37.0451 33.0143 41.9998 33.0143C46.9546 33.0143 50.9855 37.0453 50.9855 42C50.9855 43.9373 50.3782 45.7828 49.2292 47.3369C49.0753 47.545 48.7818 47.589 48.5736 47.4351C48.3654 47.2812 48.3215 46.9877 48.4753 46.7795C49.5042 45.388 50.048 43.7353 50.048 42C50.048 37.5622 46.4375 33.9518 41.9998 33.9518C37.562 33.9518 33.9517 37.5622 33.9517 42C33.9517 46.4378 37.562 50.0481 41.9998 50.0481C43.8512 50.0481 45.6587 49.404 47.0896 48.2343C47.2901 48.0705 47.5854 48.1002 47.7492 48.3006C47.913 48.501 47.8833 48.7964 47.6829 48.9602C46.0851 50.2664 44.0668 50.9856 41.9998 50.9856Z" fill="white"/>
<path d="M41.4977 48.9687C41.4563 48.9687 41.4146 48.9664 41.3731 48.9618C37.8259 48.5672 35.1509 45.5743 35.1509 42C35.1509 38.4258 37.8259 35.433 41.3731 35.0383C41.6917 35.0028 42.0112 35.105 42.2499 35.3185C42.4881 35.5316 42.6247 35.8372 42.6247 36.1567V43.7916C42.6247 44.0505 42.4148 44.2604 42.1559 44.2604C41.8971 44.2604 41.6872 44.0505 41.6872 43.7916V36.1567C41.6872 36.0839 41.6481 36.0381 41.6248 36.0172C41.6011 35.9962 41.5506 35.9619 41.4768 35.9701C38.4049 36.3119 36.0884 38.9042 36.0884 42C36.0884 45.0959 38.4049 47.6883 41.4768 48.03C41.5509 48.0387 41.6011 48.004 41.6248 47.9829C41.6481 47.962 41.6872 47.9162 41.6872 47.8434V45.9167C41.6872 45.6578 41.8971 45.448 42.1559 45.448C42.4148 45.448 42.6247 45.6578 42.6247 45.9167V47.8434C42.6247 48.1629 42.4881 48.4684 42.2499 48.6815C42.0424 48.8672 41.7737 48.9687 41.4977 48.9687Z" fill="white"/>
</g>
<defs>
<filter id="filter0_d_14_1059" x="0" y="3" width="79" height="81" filterUnits="userSpaceOnUse" color-interpolation-filters="sRGB">
<feFlood flood-opacity="0" result="BackgroundImageFix"/>
<feColorMatrix in="SourceAlpha" type="matrix" values="0 0 0 0 0 0 0 0 0 0 0 0 0 0 0 0 0 0 127 0" result="hardAlpha"/>
<feOffset dx="-2" dy="3"/>
<feGaussianBlur stdDeviation="3.5"/>
<feColorMatrix type="matrix" values="0 0 0 0 0 0 0 0 0 0 0 0 0 0 0 0 0 0 0.08 0"/>
<feBlend mode="normal" in2="BackgroundImageFix" result="effect1_dropShadow_14_1059"/>
<feBlend mode="normal" in="SourceGraphic" in2="effect1_dropShadow_14_1059" result="shape"/>
</filter>
<clipPath id="clip0_14_1059">
<rect width="32" height="32" fill="white" transform="translate(26 26)"/>
</clipPath>
</defs>
</svg>
