<svg width="81" height="84" viewBox="0 0 81 84" fill="none" xmlns="http://www.w3.org/2000/svg">
<g filter="url(#filter0_d_14_1058)">
<ellipse cx="41.5" cy="40.5" rx="32.5" ry="33.5" fill="#00C5DE"/>
</g>
<circle cx="40.5" cy="40.5" r="40" stroke="#00C5DE" stroke-dasharray="5 5"/>
<g clip-path="url(#clip0_14_1058)">
<path d="M51.5586 33.4923H49.5077V31.4414C49.5077 30.0952 48.4125 29 47.0663 29H31.4414C30.0952 29 29 30.0952 29 31.4414V47.0663C29 48.4125 30.0952 49.5077 31.4414 49.5077H33.4922V51.5586C33.4922 52.9048 34.5874 54 35.9336 54H51.5586C52.9048 54 54 52.9048 54 51.5586V35.9336C54 34.5874 52.9048 33.4923 51.5586 33.4923ZM31.4414 48.5312C30.6337 48.5312 29.9766 47.8741 29.9766 47.0663V31.4414C29.9766 30.6337 30.6337 29.9766 31.4414 29.9766H47.0663C47.8741 29.9766 48.5312 30.6337 48.5312 31.4414V47.0663C48.5312 47.874 47.8741 48.5312 47.0663 48.5312H31.4414ZM53.0234 51.5586C53.0234 52.3663 52.3663 53.0234 51.5586 53.0234H35.9336C35.1259 53.0234 34.4688 52.3663 34.4688 51.5586V49.5077H47.0663C48.4125 49.5077 49.5077 48.4125 49.5077 47.0663V34.4688H51.5586C52.3663 34.4688 53.0234 35.126 53.0234 35.9337V51.5586Z" fill="white"/>
<path d="M35.9458 51.3145H35.9326C35.6629 51.3145 35.4443 51.5331 35.4443 51.8027C35.4443 52.0724 35.6629 52.291 35.9326 52.291H35.9458C36.2155 52.291 36.4341 52.0724 36.4341 51.8027C36.4341 51.5331 36.2155 51.3145 35.9458 51.3145Z" fill="white"/>
<path d="M51.5597 51.3145H37.3486C37.079 51.3145 36.8604 51.5331 36.8604 51.8027C36.8604 52.0724 37.079 52.291 37.3486 52.291H51.5597C51.8293 52.291 52.048 52.0724 52.048 51.8027C52.048 51.5331 51.8294 51.3145 51.5597 51.3145Z" fill="white"/>
<path d="M34.3726 30.709H34.3594C34.0897 30.709 33.8711 30.9276 33.8711 31.1973C33.8711 31.4669 34.0897 31.6855 34.3594 31.6855H34.3726C34.6422 31.6855 34.8608 31.4669 34.8608 31.1973C34.8608 30.9276 34.6423 30.709 34.3726 30.709Z" fill="white"/>
<path d="M32.9568 30.709H31.4414C31.1717 30.709 30.9531 30.9276 30.9531 31.1973C30.9531 31.4669 31.1717 31.6855 31.4414 31.6855H32.9567C33.2264 31.6855 33.445 31.4669 33.445 31.1973C33.4451 30.9276 33.2265 30.709 32.9568 30.709Z" fill="white"/>
<path d="M43.3302 38.8208C43.2141 38.3911 42.9378 38.0324 42.5528 37.8112L40.1642 36.4322C40.1402 36.4166 40.116 36.4017 40.0917 36.3877L37.7093 35.0121C37.4364 34.8322 37.1192 34.7372 36.7907 34.7372C35.8693 34.7372 35.1196 35.4868 35.1196 36.4083V42.1021C35.1196 42.122 35.1208 42.1416 35.1231 42.1609C35.1328 42.4333 35.2097 42.7009 35.3471 42.9382C35.6444 43.4517 36.198 43.7706 36.7919 43.7706C37.0842 43.7706 37.3729 43.6929 37.6263 43.5461L40.0917 42.1226C40.1057 42.1145 40.1191 42.1059 40.132 42.0967L42.5353 40.7093C42.7976 40.5627 43.0157 40.3471 43.1663 40.0853C43.388 39.6995 43.4462 39.2503 43.3302 38.8208ZM42.3197 39.5987C42.257 39.7077 42.1663 39.7973 42.0575 39.8577C42.0551 39.859 42.0527 39.8604 42.0503 39.8617L39.6024 41.2749C39.5884 41.283 39.575 41.2916 39.5621 41.3009L37.1375 42.7008C37.0321 42.7618 36.9125 42.7941 36.7919 42.7941C36.5453 42.7941 36.3155 42.6619 36.1921 42.4489C36.131 42.3432 36.0987 42.2235 36.0988 42.1026C36.0988 42.086 36.0979 42.0695 36.0962 42.0531V36.4083H36.0963C36.0963 36.0253 36.4079 35.7137 36.7908 35.7137C36.93 35.7137 37.064 35.7546 37.1783 35.8318C37.1878 35.8382 37.1976 35.8443 37.2075 35.85L39.6045 37.234C39.6165 37.2409 39.628 37.2483 39.6394 37.2558C39.6475 37.2611 39.6558 37.2663 39.6642 37.2712L42.0654 38.6574C42.2251 38.7492 42.3394 38.8976 42.3875 39.0754C42.4355 39.2533 42.4114 39.4391 42.3197 39.5987Z" fill="white"/>
</g>
<defs>
<filter id="filter0_d_14_1058" x="0" y="3" width="79" height="81" filterUnits="userSpaceOnUse" color-interpolation-filters="sRGB">
<feFlood flood-opacity="0" result="BackgroundImageFix"/>
<feColorMatrix in="SourceAlpha" type="matrix" values="0 0 0 0 0 0 0 0 0 0 0 0 0 0 0 0 0 0 127 0" result="hardAlpha"/>
<feOffset dx="-2" dy="3"/>
<feGaussianBlur stdDeviation="3.5"/>
<feColorMatrix type="matrix" values="0 0 0 0 0 0 0 0 0 0 0 0 0 0 0 0 0 0 0.08 0"/>
<feBlend mode="normal" in2="BackgroundImageFix" result="effect1_dropShadow_14_1058"/>
<feBlend mode="normal" in="SourceGraphic" in2="effect1_dropShadow_14_1058" result="shape"/>
</filter>
<clipPath id="clip0_14_1058">
<rect width="25" height="25" fill="white" transform="translate(29 29)"/>
</clipPath>
</defs>
</svg>
