<svg width="81" height="84" viewBox="0 0 81 84" fill="none" xmlns="http://www.w3.org/2000/svg">
<g filter="url(#filter0_d_11_2)">
<ellipse cx="41.5" cy="40.5" rx="32.5" ry="33.5" fill="#00C5DE"/>
</g>
<circle cx="40.5" cy="40.5" r="40" stroke="#00C5DE" stroke-dasharray="5 5"/>
<path d="M54.8203 29H28.1797C27.7302 29.0005 27.2993 29.1851 26.9815 29.5131C26.6636 29.8412 26.4849 30.286 26.4844 30.75V49.25C26.4849 49.714 26.6636 50.1588 26.9815 50.4869C27.2993 50.8149 27.7302 50.9995 28.1797 51H38.0028L37.7122 52.5H35.6875C35.559 52.5 35.4358 52.5527 35.345 52.6464C35.2542 52.7402 35.2031 52.8674 35.2031 53V54.5C35.2031 54.6326 35.2542 54.7598 35.345 54.8536C35.4358 54.9473 35.559 55 35.6875 55H47.3125C47.441 55 47.5642 54.9473 47.655 54.8536C47.7458 54.7598 47.7969 54.6326 47.7969 54.5V53C47.7969 52.8674 47.7458 52.7402 47.655 52.6464C47.5642 52.5527 47.441 52.5 47.3125 52.5H45.2878L44.9972 51H54.8203C55.2698 50.9995 55.7007 50.8149 56.0185 50.4869C56.3364 50.1588 56.5151 49.714 56.5156 49.25V30.75C56.5151 30.286 56.3364 29.8412 56.0185 29.5131C55.7007 29.1851 55.2698 29.0005 54.8203 29ZM46.8281 53.5V54H36.1719V53.5H46.8281ZM38.7003 52.5L38.9909 51H44.0091L44.2997 52.5H38.7003ZM55.5469 49.25C55.5467 49.4489 55.4701 49.6395 55.3339 49.7801C55.1977 49.9208 55.013 49.9998 54.8203 50H28.1797C27.987 49.9998 27.8023 49.9208 27.6661 49.7801C27.5299 49.6395 27.4533 49.4489 27.4531 49.25V48H55.5469V49.25ZM55.5469 47H27.4531V30.75C27.4533 30.5511 27.5299 30.3605 27.6661 30.2199C27.8023 30.0792 27.987 30.0002 28.1797 30H54.8203C55.013 30.0002 55.1977 30.0792 55.3339 30.2199C55.4701 30.3605 55.5467 30.5511 55.5469 30.75V47Z" fill="white"/>
<path d="M41.9844 48.5H41.0156C40.8872 48.5 40.764 48.5527 40.6731 48.6464C40.5823 48.7402 40.5312 48.8674 40.5312 49C40.5312 49.1326 40.5823 49.2598 40.6731 49.3536C40.764 49.4473 40.8872 49.5 41.0156 49.5H41.9844C42.1128 49.5 42.236 49.4473 42.3269 49.3536C42.4177 49.2598 42.4688 49.1326 42.4688 49C42.4688 48.8674 42.4177 48.7402 42.3269 48.6464C42.236 48.5527 42.1128 48.5 41.9844 48.5Z" fill="white"/>
<defs>
<filter id="filter0_d_11_2" x="0" y="3" width="79" height="81" filterUnits="userSpaceOnUse" color-interpolation-filters="sRGB">
<feFlood flood-opacity="0" result="BackgroundImageFix"/>
<feColorMatrix in="SourceAlpha" type="matrix" values="0 0 0 0 0 0 0 0 0 0 0 0 0 0 0 0 0 0 127 0" result="hardAlpha"/>
<feOffset dx="-2" dy="3"/>
<feGaussianBlur stdDeviation="3.5"/>
<feColorMatrix type="matrix" values="0 0 0 0 0 0 0 0 0 0 0 0 0 0 0 0 0 0 0.08 0"/>
<feBlend mode="normal" in2="BackgroundImageFix" result="effect1_dropShadow_11_2"/>
<feBlend mode="normal" in="SourceGraphic" in2="effect1_dropShadow_11_2" result="shape"/>
</filter>
</defs>
</svg>
