<svg width="81" height="84" viewBox="0 0 81 84" fill="none" xmlns="http://www.w3.org/2000/svg">
<g filter="url(#filter0_d_14_1060)">
<ellipse cx="41.5" cy="40.5" rx="32.5" ry="33.5" fill="#00C5DE"/>
</g>
<circle cx="40.5" cy="40.5" r="40" stroke="#00C5DE" stroke-dasharray="5 5"/>
<g clip-path="url(#clip0_14_1060)">
<path d="M38.5047 44.662C39.163 44.9374 39.9179 44.8769 40.5238 44.4998L41.8587 43.6692C41.9407 43.6181 42.0437 43.6165 42.1273 43.6647L43.7976 44.6283C44.1388 44.8253 44.5195 44.9243 44.901 44.9243C45.2323 44.9243 45.5643 44.8496 45.8716 44.6993L48.799 43.2674C49.704 42.8247 50.1185 41.7799 49.763 40.8372L49.3688 39.7915C49.0853 39.0396 48.3549 38.5344 47.5512 38.5344H36.4058C35.5684 38.5344 34.8279 39.0682 34.5631 39.8626L34.2116 40.917C33.8919 41.8761 34.3721 42.9331 35.3047 43.3233L38.5047 44.662ZM34.991 41.1769L35.3425 40.1224C35.4953 39.664 35.9226 39.356 36.4058 39.356H47.5512C48.015 39.356 48.4365 39.6475 48.6001 40.0814L48.9943 41.1271C49.1995 41.6711 48.9603 42.2739 48.438 42.5294L45.5106 43.9613C45.0954 44.1644 44.6085 44.1477 44.2081 43.9168L42.5379 42.9532C42.3699 42.8562 42.1831 42.8079 41.9966 42.8079C41.7981 42.8079 41.5998 42.8626 41.4246 42.9717L40.0898 43.8023C39.7093 44.039 39.2353 44.0772 38.8218 43.9041L35.6218 42.5654C35.0836 42.3402 34.8065 41.7303 34.991 41.1769Z" fill="white"/>
<path d="M36.8779 41.9951C37.2206 42.2392 37.6917 42.4235 38.2045 42.5139C38.4437 42.5561 38.6734 42.5763 38.8891 42.5763C39.773 42.5763 40.4224 42.2364 40.522 41.6713C40.5609 41.4507 40.5394 41.019 39.9591 40.6055C39.6164 40.3614 39.1453 40.1772 38.6325 40.0868C37.4136 39.8717 36.439 40.2263 36.315 40.9294C36.276 41.1499 36.2974 41.5816 36.8779 41.9951ZM37.9588 40.8468C38.1153 40.8468 38.2926 40.861 38.4898 40.8958C39.3341 41.0447 39.7065 41.4247 39.7127 41.5285C39.6714 41.624 39.1914 41.8537 38.3471 41.7049C37.4981 41.5552 37.1262 41.1718 37.1235 41.0738C37.1517 41.0011 37.4415 40.8468 37.9588 40.8468Z" fill="white"/>
<path d="M45.111 42.5762C45.3266 42.5762 45.5564 42.556 45.7956 42.5138C46.3083 42.4234 46.7794 42.2391 47.1222 41.995C47.7026 41.5816 47.724 41.1498 47.685 40.9293C47.561 40.2261 46.5866 39.8716 45.3675 40.0866C44.8548 40.177 44.3837 40.3613 44.0409 40.6054C43.4605 41.0189 43.4391 41.4506 43.4781 41.6711C43.5777 42.2364 44.2269 42.5762 45.111 42.5762ZM45.5102 40.8957C45.7074 40.8609 45.8847 40.8467 46.0412 40.8467C46.5547 40.8467 46.8441 40.9988 46.8757 41.072C46.8696 41.1759 46.4972 41.5558 45.6529 41.7048C44.8037 41.8545 44.3233 41.6213 44.2872 41.5301C44.2893 41.4288 44.6612 41.0454 45.5102 40.8957Z" fill="white"/>
<path d="M55.6101 49.3276V33.3862C55.6101 32.4047 54.8116 31.6062 53.8301 31.6062H49.0815C48.7033 30.632 48.1243 29.7384 47.3703 28.9848C46.4846 28.0991 45.4185 27.4594 44.2551 27.0994C44.2093 26.5701 43.9815 26.078 43.6008 25.6968C43.1727 25.2693 42.6042 25.0339 42 25.0339C41.3958 25.0339 40.8273 25.2693 40.3987 25.6972C40.0181 26.0784 39.7903 26.5711 39.7448 27.101C37.5347 27.7866 35.7506 29.4537 34.9166 31.6062H30.1699C29.1884 31.6062 28.39 32.4047 28.39 33.3862V37.3021C28.39 37.5291 28.5738 37.7129 28.8007 37.7129C29.0276 37.7129 29.2115 37.5291 29.2115 37.3021V33.3862C29.2115 32.8577 29.6415 32.4277 30.1699 32.4277H34.6516C34.5545 32.8004 34.4843 33.1843 34.4444 33.5777C33.7348 33.6766 33.1868 34.2871 33.1868 35.0235V35.8694C33.1868 36.6746 33.8418 37.3295 34.6469 37.3295H49.3532C50.1583 37.3295 50.8133 36.6746 50.8133 35.8694V35.0235C50.8133 34.287 50.2651 33.6765 49.5553 33.5776C49.5155 33.1875 49.4458 32.8032 49.3475 32.4277H53.8301C54.3585 32.4277 54.7885 32.8577 54.7885 33.3862V48.7408C54.6017 48.6753 54.4011 48.6393 54.1921 48.6393H29.8079C29.599 48.6393 29.3984 48.6753 29.2115 48.7408V39.2191C29.2115 38.9921 29.0276 38.8083 28.8007 38.8083C28.5738 38.8083 28.39 38.9921 28.39 39.2191V49.3276C28.1461 49.6357 28 50.0246 28 50.4472V51.1581C28 52.155 28.8111 52.966 29.8079 52.966H49.4776C49.7045 52.966 49.8884 52.7822 49.8884 52.5553C49.8884 52.3283 49.7045 52.1445 49.4776 52.1445H29.8079C29.264 52.1445 28.8215 51.702 28.8215 51.1581V50.4472C28.8215 49.9033 29.264 49.4608 29.8079 49.4608H36.0316V50.3097C36.0316 50.8382 36.4616 51.2682 36.99 51.2682H47.0127C47.5412 51.2682 47.9712 50.8382 47.9712 50.3097V49.4608H54.1921C54.736 49.4608 55.1785 49.9033 55.1785 50.4472V51.1581C55.1785 51.702 54.736 52.1445 54.1921 52.1445H51.3945C51.1676 52.1445 50.9837 52.3283 50.9837 52.5553C50.9837 52.7822 51.1676 52.966 51.3945 52.966H54.1921C55.1889 52.966 56 52.155 56 51.1581V50.4472C56 50.0246 55.8539 49.6357 55.6101 49.3276ZM40.9796 26.2782C41.2526 26.0056 41.615 25.8555 42 25.8555C42.385 25.8555 42.7474 26.0056 43.0199 26.2777C43.1922 26.4503 43.3154 26.6585 43.3828 26.8856C42.9312 26.803 42.4689 26.7602 42 26.7602C41.528 26.7602 41.0658 26.8038 40.6169 26.8864C40.6843 26.659 40.8075 26.4506 40.9796 26.2782ZM42 27.5818C43.8091 27.5818 45.51 28.2863 46.7894 29.5658C47.8725 30.6484 48.5511 32.0546 48.7271 33.5634H35.2729C35.6659 30.176 38.5409 27.5818 42 27.5818ZM49.9917 35.0235V35.8694C49.9917 36.2216 49.7053 36.508 49.3532 36.508H34.6469C34.2947 36.508 34.0083 36.2216 34.0083 35.8694V35.0235C34.0083 34.6713 34.2947 34.3849 34.6469 34.3849H49.3532C49.7053 34.3848 49.9917 34.6713 49.9917 35.0235ZM47.1496 50.3097C47.1496 50.3853 47.0882 50.4467 47.0127 50.4467H36.99C36.9145 50.4467 36.8531 50.3853 36.8531 50.3097V49.4608H47.1496V50.3097Z" fill="white"/>
</g>
<defs>
<filter id="filter0_d_14_1060" x="0" y="3" width="79" height="81" filterUnits="userSpaceOnUse" color-interpolation-filters="sRGB">
<feFlood flood-opacity="0" result="BackgroundImageFix"/>
<feColorMatrix in="SourceAlpha" type="matrix" values="0 0 0 0 0 0 0 0 0 0 0 0 0 0 0 0 0 0 127 0" result="hardAlpha"/>
<feOffset dx="-2" dy="3"/>
<feGaussianBlur stdDeviation="3.5"/>
<feColorMatrix type="matrix" values="0 0 0 0 0 0 0 0 0 0 0 0 0 0 0 0 0 0 0.08 0"/>
<feBlend mode="normal" in2="BackgroundImageFix" result="effect1_dropShadow_14_1060"/>
<feBlend mode="normal" in="SourceGraphic" in2="effect1_dropShadow_14_1060" result="shape"/>
</filter>
<clipPath id="clip0_14_1060">
<rect width="28" height="28" fill="white" transform="translate(28 25)"/>
</clipPath>
</defs>
</svg>
