<svg width="81" height="84" viewBox="0 0 81 84" fill="none" xmlns="http://www.w3.org/2000/svg">
<g filter="url(#filter0_d_14_1057)">
<ellipse cx="41.5" cy="40.5" rx="32.5" ry="33.5" fill="#00C5DE"/>
</g>
<circle cx="40.5" cy="40.5" r="40" stroke="#00C5DE" stroke-dasharray="5 5"/>
<g clip-path="url(#clip0_14_1057)">
<path d="M57.7371 47.985L57.0574 46.399C57.0336 46.344 56.9992 46.2942 56.956 46.2526C56.9128 46.211 56.8618 46.1784 56.8059 46.1566C56.7507 46.1336 56.6914 46.1217 56.6315 46.1217C56.5716 46.1217 56.5123 46.1336 56.457 46.1566L54.6445 46.9586L54.0011 46.5055C54.4745 46.3861 54.9047 46.136 55.2427 45.7838C55.5807 45.4315 55.8129 44.9913 55.9127 44.5134C56.0124 44.0356 55.9758 43.5392 55.807 43.0812C55.6382 42.6231 55.344 42.2217 54.9579 41.9229C54.5719 41.6241 54.1096 41.4398 53.6239 41.3911C53.1381 41.3425 52.6484 41.4314 52.2108 41.6477C51.7732 41.8641 51.4052 42.1991 51.1489 42.6146C50.8926 43.0301 50.7582 43.5093 50.7613 43.9975C50.7612 44.089 50.7657 44.1805 50.7749 44.2716L49.642 43.4877C49.5682 43.4361 49.4806 43.4077 49.3906 43.4061H46.2187C46.0985 43.4061 45.9833 43.4539 45.8983 43.5389C45.8133 43.6238 45.7656 43.7391 45.7656 43.8593V45.6718C45.7656 45.7919 45.8133 45.9072 45.8983 45.9922C45.9833 46.0772 46.0985 46.1249 46.2187 46.1249H48.5659L49.7213 46.9496L45.1312 56.3474C45.0973 56.4166 45.0816 56.4932 45.0856 56.5701C45.0895 56.647 45.113 56.7216 45.1538 56.7869C45.1947 56.8522 45.2514 56.9061 45.3188 56.9433C45.3862 56.9806 45.462 57.0001 45.539 56.9999H47.5781C47.6624 56.9999 47.745 56.9763 47.8166 56.9319C47.8883 56.8874 47.9461 56.8239 47.9836 56.7484L50.3308 52.054L51.1849 52.6227L49.8913 55.2123C49.857 55.2813 49.841 55.3578 49.8445 55.4347C49.8481 55.5116 49.8712 55.5864 49.9117 55.6519C49.9508 55.7197 50.0069 55.7762 50.0744 55.8159C50.1419 55.8556 50.2185 55.8772 50.2968 55.8784H52.3359C52.421 55.8784 52.5045 55.8543 52.5766 55.8091C52.6487 55.7638 52.7066 55.6991 52.7437 55.6224L54.5109 51.9747C54.5583 51.8774 54.5692 51.7663 54.5418 51.6616C54.5144 51.5569 54.4504 51.4654 54.3613 51.4038L52.1093 49.836L52.5624 48.9411L54.0532 49.9334C54.1191 49.9785 54.1956 50.0053 54.2752 50.0113C54.3548 50.0173 54.4345 50.0021 54.5063 49.9674L57.5219 48.5763C57.6274 48.5248 57.7087 48.4344 57.7489 48.3241C57.789 48.2138 57.7848 48.0922 57.7371 47.985ZM53.3667 42.2983C53.7028 42.2983 54.0313 42.3979 54.3108 42.5846C54.5902 42.7713 54.808 43.0367 54.9366 43.3472C55.0652 43.6577 55.0989 43.9994 55.0333 44.329C54.9677 44.6586 54.8059 44.9614 54.5683 45.199C54.3306 45.4366 54.0278 45.5985 53.6982 45.664C53.3686 45.7296 53.027 45.696 52.7165 45.5673C52.406 45.4387 52.1406 45.2209 51.9539 44.9415C51.7672 44.6621 51.6675 44.3335 51.6675 43.9975C51.6675 43.5468 51.8465 43.1146 52.1652 42.7959C52.4839 42.4773 52.9161 42.2983 53.3667 42.2983ZM47.2971 56.0937H46.264L48.7562 51.0005L49.5763 51.5465L47.2971 56.0937ZM54.3455 49.0385L52.6349 47.9057C52.5813 47.8701 52.5207 47.8463 52.4572 47.8359C52.3937 47.8255 52.3286 47.8288 52.2665 47.8455C52.2043 47.8622 52.1464 47.892 52.0967 47.9329C52.0469 47.9737 52.0064 48.0247 51.9779 48.0824L51.1328 49.7884C51.0846 49.8857 51.0729 49.9972 51.1 50.1024C51.127 50.2076 51.1909 50.2996 51.2801 50.3616L53.5253 51.9204L52.0527 54.9608H51.0309L52.175 52.6703C52.2238 52.5717 52.2351 52.4587 52.2068 52.3524C52.1784 52.2461 52.1124 52.1537 52.0209 52.0926L49.164 50.1804L50.7159 47.0085C50.7628 46.9124 50.7741 46.8029 50.748 46.6992C50.7219 46.5956 50.66 46.5045 50.5732 46.4421L48.9873 45.3093C48.9076 45.2495 48.8105 45.2177 48.7109 45.2186H46.6718V44.3124H49.2478L54.3432 47.8558C54.4082 47.9023 54.4844 47.9308 54.564 47.9384C54.6436 47.9459 54.7237 47.9323 54.7963 47.8989L56.414 47.1784L56.7312 47.9374L54.3455 49.0385Z" fill="white"/>
<path d="M42.5936 37.4069V34.3438H43.9529C44.0731 34.3438 44.1884 34.296 44.2734 34.211C44.3583 34.1261 44.4061 34.0108 44.4061 33.8906V28.4531C44.4061 28.3329 44.3583 28.2177 44.2734 28.1327C44.1884 28.0477 44.0731 28 43.9529 28H29.4529C29.3328 28 29.2175 28.0477 29.1325 28.1327C29.0476 28.2177 28.9998 28.3329 28.9998 28.4531L28.9998 33.8906C28.9975 33.9094 28.9975 33.9285 28.9998 33.9473C28.9975 33.9661 28.9975 33.9851 28.9998 34.0039V50.0898C28.9998 50.21 29.0476 50.3253 29.1325 50.4103C29.2175 50.4952 29.3328 50.543 29.4529 50.543C32.9373 50.543 36.279 49.1591 38.7432 46.6958C41.2074 44.2324 42.5924 40.8912 42.5936 37.4069ZM29.9061 28.9062H43.4998V33.4375H29.9061V28.9062ZM29.9061 49.6277V34.448H41.6873V37.3933C41.6895 40.561 40.4629 43.6061 38.2656 45.8879C36.0683 48.1697 33.0717 49.5103 29.9061 49.6277Z" fill="white"/>
<path d="M47.5783 32.3048C47.5793 32.7215 47.4977 33.1343 47.3383 33.5192C47.1788 33.9042 46.9447 34.2538 46.6493 34.5478C46.6072 34.5899 46.5738 34.6398 46.551 34.6948C46.5282 34.7498 46.5165 34.8088 46.5165 34.8684C46.5165 34.9279 46.5282 34.9869 46.551 35.0419C46.5738 35.0969 46.6072 35.1469 46.6493 35.1889C46.6914 35.2311 46.7414 35.2645 46.7964 35.2873C46.8514 35.3101 46.9104 35.3218 46.9699 35.3218C47.0295 35.3218 47.0884 35.3101 47.1435 35.2873C47.1985 35.2645 47.2484 35.2311 47.2905 35.1889C47.6694 34.8102 47.9699 34.3606 48.1749 33.8657C48.3799 33.3709 48.4854 32.8405 48.4854 32.3048C48.4854 31.7691 48.3799 31.2387 48.1749 30.7439C47.9699 30.249 47.6694 29.7994 47.2905 29.4207C47.2506 29.3716 47.2009 29.3315 47.1446 29.3028C47.0883 29.2741 47.0265 29.2575 46.9634 29.2541C46.9003 29.2507 46.8372 29.2605 46.7781 29.283C46.719 29.3054 46.6652 29.34 46.6203 29.3844C46.5753 29.4289 46.5402 29.4823 46.5171 29.5411C46.494 29.6 46.4835 29.663 46.4863 29.7262C46.489 29.7893 46.5049 29.8512 46.533 29.9079C46.5611 29.9645 46.6007 30.0146 46.6493 30.055C46.9453 30.35 47.1798 30.7007 47.3392 31.0868C47.4987 31.473 47.5799 31.887 47.5783 32.3048Z" fill="white"/>
<path d="M45.3668 33.8906C45.4089 33.933 45.4591 33.9666 45.5143 33.9896C45.5695 34.0125 45.6287 34.0243 45.6885 34.0243C45.8085 34.0238 45.9234 33.9757 46.008 33.8906C46.4327 33.4657 46.6713 32.8896 46.6713 32.2888C46.6713 31.688 46.4327 31.1119 46.008 30.687C45.9659 30.6449 45.9159 30.6115 45.8609 30.5887C45.8059 30.5659 45.7469 30.5542 45.6874 30.5542C45.6278 30.5542 45.5689 30.5659 45.5139 30.5887C45.4589 30.6115 45.4089 30.6449 45.3668 30.687C45.3247 30.7291 45.2913 30.7791 45.2685 30.8341C45.2457 30.8891 45.234 30.948 45.234 31.0076C45.234 31.0671 45.2457 31.1261 45.2685 31.1811C45.2913 31.2361 45.3247 31.2861 45.3668 31.3282C45.6213 31.583 45.7643 31.9286 45.7643 32.2888C45.7643 32.649 45.6213 32.9945 45.3668 33.2494C45.3247 33.2915 45.2912 33.3415 45.2684 33.3965C45.2456 33.4515 45.2339 33.5105 45.2339 33.57C45.2339 33.6295 45.2456 33.6885 45.2684 33.7435C45.2912 33.7985 45.3247 33.8485 45.3668 33.8906Z" fill="white"/>
<path d="M47.9316 35.8232C47.8472 35.9081 47.7998 36.023 47.7998 36.1427C47.7998 36.2624 47.8472 36.3773 47.9316 36.4622C48.0165 36.5465 48.1313 36.5939 48.251 36.5939C48.3707 36.5939 48.4856 36.5465 48.5705 36.4622C49.6745 35.3575 50.2947 33.8597 50.2947 32.2979C50.2947 30.7362 49.6745 29.2383 48.5705 28.1337C48.4856 28.0493 48.3707 28.002 48.251 28.002C48.1313 28.002 48.0165 28.0493 47.9316 28.1337C47.8472 28.2186 47.7998 28.3335 47.7998 28.4532C47.7998 28.5729 47.8472 28.6877 47.9316 28.7726C48.3947 29.2355 48.762 29.7851 49.0126 30.39C49.2633 30.9948 49.3923 31.6432 49.3923 32.2979C49.3923 32.9527 49.2633 33.601 49.0126 34.2059C48.762 34.8108 48.3947 35.3604 47.9316 35.8232Z" fill="white"/>
<path d="M38.9688 48.3906C38.9688 48.5108 39.0165 48.6261 39.1015 48.711C39.1864 48.796 39.3017 48.8438 39.4219 48.8438H45.7656C45.8858 48.8438 46.0011 48.796 46.086 48.711C46.171 48.6261 46.2188 48.5108 46.2188 48.3906C46.2188 48.2704 46.171 48.1552 46.086 48.0702C46.0011 47.9852 45.8858 47.9375 45.7656 47.9375H39.4219C39.3017 47.9375 39.1864 47.9852 39.1015 48.0702C39.0165 48.1552 38.9688 48.2704 38.9688 48.3906Z" fill="white"/>
<path d="M44.4062 50.6562H38.0625C37.9423 50.6562 37.8271 50.704 37.7421 50.789C37.6571 50.8739 37.6094 50.9892 37.6094 51.1094C37.6094 51.2296 37.6571 51.3448 37.7421 51.4298C37.8271 51.5148 37.9423 51.5625 38.0625 51.5625H44.4062C44.5264 51.5625 44.6417 51.5148 44.7267 51.4298C44.8116 51.3448 44.8594 51.2296 44.8594 51.1094C44.8594 50.9892 44.8116 50.8739 44.7267 50.789C44.6417 50.704 44.5264 50.6562 44.4062 50.6562Z" fill="white"/>
<path d="M43.0469 53.375H36.7031C36.5829 53.375 36.4677 53.4227 36.3827 53.5077C36.2977 53.5927 36.25 53.7079 36.25 53.8281C36.25 53.9483 36.2977 54.0636 36.3827 54.1485C36.4677 54.2335 36.5829 54.2812 36.7031 54.2812H43.0469C43.1671 54.2812 43.2823 54.2335 43.3673 54.1485C43.4523 54.0636 43.5 53.9483 43.5 53.8281C43.5 53.7079 43.4523 53.5927 43.3673 53.5077C43.2823 53.4227 43.1671 53.375 43.0469 53.375Z" fill="white"/>
</g>
<defs>
<filter id="filter0_d_14_1057" x="0" y="3" width="79" height="81" filterUnits="userSpaceOnUse" color-interpolation-filters="sRGB">
<feFlood flood-opacity="0" result="BackgroundImageFix"/>
<feColorMatrix in="SourceAlpha" type="matrix" values="0 0 0 0 0 0 0 0 0 0 0 0 0 0 0 0 0 0 127 0" result="hardAlpha"/>
<feOffset dx="-2" dy="3"/>
<feGaussianBlur stdDeviation="3.5"/>
<feColorMatrix type="matrix" values="0 0 0 0 0 0 0 0 0 0 0 0 0 0 0 0 0 0 0.08 0"/>
<feBlend mode="normal" in2="BackgroundImageFix" result="effect1_dropShadow_14_1057"/>
<feBlend mode="normal" in="SourceGraphic" in2="effect1_dropShadow_14_1057" result="shape"/>
</filter>
<clipPath id="clip0_14_1057">
<rect width="29" height="29" fill="white" transform="translate(29 28)"/>
</clipPath>
</defs>
</svg>
