<svg width="81" height="84" viewBox="0 0 81 84" fill="none" xmlns="http://www.w3.org/2000/svg">
<g filter="url(#filter0_d_14_1056)">
<ellipse cx="41.5" cy="40.5" rx="32.5" ry="33.5" fill="#00C5DE"/>
</g>
<circle cx="40.5" cy="40.5" r="40" stroke="#00C5DE" stroke-dasharray="5 5"/>
<g clip-path="url(#clip0_14_1056)">
<path d="M41.5 48.829C44.6383 48.829 47.1914 46.2759 47.1914 43.1376V32.6914C47.1914 29.5531 44.6383 27 41.5 27C38.3617 27 35.8086 29.5531 35.8086 32.6914V43.1376C35.8086 46.2759 38.3617 48.829 41.5 48.829ZM41.5 28.2109C43.9706 28.2109 45.9805 30.2208 45.9805 32.6914V37.6953H37.0195V32.6914C37.0195 30.2208 39.0294 28.2109 41.5 28.2109ZM37.0195 38.9062H45.9805V43.1376C45.9805 45.6082 43.9706 47.6181 41.5 47.6181C39.0294 47.6181 37.0195 45.6082 37.0195 43.1376V38.9062Z" fill="white"/>
<path d="M40.0269 34.9504H42.9733C43.3077 34.9504 43.5788 34.6794 43.5788 34.345C43.5788 34.0105 43.3077 33.7395 42.9733 33.7395H40.0269C39.6924 33.7395 39.4214 34.0105 39.4214 34.345C39.4214 34.6794 39.6924 34.9504 40.0269 34.9504Z" fill="white"/>
<path d="M40.0269 32.6941H42.9733C43.3077 32.6941 43.5788 32.423 43.5788 32.0886C43.5788 31.7542 43.3077 31.4832 42.9733 31.4832H40.0269C39.6924 31.4832 39.4214 31.7542 39.4214 32.0886C39.4214 32.423 39.6924 32.6941 40.0269 32.6941Z" fill="white"/>
<path d="M49.2518 42.5322C48.9176 42.5322 48.6464 42.8033 48.6464 43.1377C48.6464 47.0782 45.4405 50.2841 41.4999 50.2841C37.5594 50.2841 34.3535 47.0782 34.3535 43.1377C34.3535 42.8033 34.0825 42.5322 33.748 42.5322C33.4136 42.5322 33.1426 42.8033 33.1426 43.1377C33.1426 47.1333 35.9616 50.4825 39.7148 51.3025V54.3634H39.6672C37.9958 54.3634 36.6361 55.7231 36.6361 57.3946C36.6361 57.729 36.9071 58 37.2416 58H45.7583C46.0928 58 46.3638 57.729 46.3638 57.3946C46.3638 55.7234 45.0041 54.3634 43.3327 54.3634H43.2851V51.3025C47.0386 50.4825 49.8573 47.1333 49.8573 43.1377C49.8573 42.8033 49.5863 42.5322 49.2518 42.5322ZM45.0495 56.7891H37.9506C38.2006 56.0822 38.8756 55.5744 39.6672 55.5744H43.3329C44.1243 55.5744 44.7993 56.0822 45.0495 56.7891ZM42.0742 54.3634H40.9257V51.4749C41.1156 51.4879 41.3069 51.495 41.4999 51.495C41.6929 51.495 41.8843 51.4879 42.0742 51.4749V54.3634Z" fill="white"/>
<path d="M29.0273 32.6555C28.6929 32.6555 28.4219 32.9266 28.4219 33.261V39.1712C28.4219 39.5053 28.6929 39.7766 29.0273 39.7766C29.3618 39.7766 29.6328 39.5053 29.6328 39.1712V33.261C29.6328 32.9266 29.3618 32.6555 29.0273 32.6555Z" fill="white"/>
<path d="M33.8711 38.2634C34.2055 38.2634 34.4766 37.9924 34.4766 37.6579V34.7739C34.4766 34.4395 34.2055 34.1685 33.8711 34.1685C33.5367 34.1685 33.2656 34.4395 33.2656 34.7739V37.6579C33.2656 37.9924 33.5367 38.2634 33.8711 38.2634Z" fill="white"/>
<path d="M26.6055 30.2695C26.271 30.2695 26 30.5406 26 30.875V40.9459C26 41.2803 26.271 41.5513 26.6055 41.5513C26.9399 41.5513 27.2109 41.2803 27.2109 40.9459V30.875C27.2109 30.5406 26.9399 30.2695 26.6055 30.2695Z" fill="white"/>
<path d="M31.4492 32.0444C31.1148 32.0444 30.8438 32.3155 30.8438 32.6499V40.8339C30.8438 41.1683 31.1148 41.4394 31.4492 41.4394C31.7836 41.4394 32.0547 41.1683 32.0547 40.8339V32.6499C32.0547 32.3155 31.7836 32.0444 31.4492 32.0444Z" fill="white"/>
<path d="M53.9727 32.6555C53.6382 32.6555 53.3672 32.9266 53.3672 33.261V39.1712C53.3672 39.5053 53.6382 39.7766 53.9727 39.7766C54.3071 39.7766 54.5781 39.5053 54.5781 39.1712V33.261C54.5781 32.9266 54.3071 32.6555 53.9727 32.6555Z" fill="white"/>
<path d="M49.1289 38.2634C49.4633 38.2634 49.7344 37.9924 49.7344 37.6579V34.7739C49.7344 34.4395 49.4633 34.1685 49.1289 34.1685C48.7945 34.1685 48.5234 34.4395 48.5234 34.7739V37.6579C48.5234 37.9924 48.7945 38.2634 49.1289 38.2634Z" fill="white"/>
<path d="M56.3945 30.2695C56.0601 30.2695 55.7891 30.5406 55.7891 30.875V40.9459C55.7891 41.2803 56.0601 41.5513 56.3945 41.5513C56.729 41.5513 57 41.2803 57 40.9459V30.875C57 30.5406 56.729 30.2695 56.3945 30.2695Z" fill="white"/>
<path d="M51.5508 40.2288C51.3916 40.2288 51.2353 40.2931 51.1227 40.4057C51.0101 40.519 50.9453 40.6746 50.9453 40.8342C50.9453 40.9936 51.0101 41.1497 51.1227 41.2623C51.2353 41.3751 51.3916 41.4397 51.5508 41.4397C51.71 41.4397 51.8663 41.3751 51.9789 41.2623C52.0914 41.1497 52.1562 40.9936 52.1562 40.8342C52.1562 40.6746 52.0914 40.519 51.9789 40.4057C51.8663 40.2931 51.71 40.2288 51.5508 40.2288Z" fill="white"/>
<path d="M51.5508 32.0444C51.2164 32.0444 50.9453 32.3155 50.9453 32.6499V38.2632C50.9453 38.5977 51.2164 38.8687 51.5508 38.8687C51.8852 38.8687 52.1562 38.5977 52.1562 38.2632V32.6499C52.1562 32.3155 51.8852 32.0444 51.5508 32.0444Z" fill="white"/>
<path d="M41.5 46.2842C43.235 46.2842 44.6468 44.8727 44.6468 43.1377C44.6468 42.8033 44.3755 42.5322 44.0413 42.5322C43.7069 42.5322 43.4358 42.8033 43.4358 43.1377C43.4358 44.2048 42.5674 45.0733 41.5 45.0733C41.1656 45.0733 40.8945 45.3443 40.8945 45.6788C40.8945 46.0132 41.1656 46.2842 41.5 46.2842Z" fill="white"/>
<path d="M44.041 41.6523C44.2004 41.6523 44.3565 41.5875 44.4691 41.475C44.5817 41.3624 44.6465 41.206 44.6465 41.0469C44.6465 40.8877 44.5819 40.7314 44.4691 40.6188C44.3565 40.5062 44.2004 40.4414 44.041 40.4414C43.8818 40.4414 43.7257 40.5062 43.6132 40.6188C43.5006 40.7314 43.4355 40.8877 43.4355 41.0469C43.4355 41.206 43.5004 41.3624 43.6132 41.475C43.7257 41.5875 43.8818 41.6523 44.041 41.6523Z" fill="white"/>
</g>
<defs>
<filter id="filter0_d_14_1056" x="0" y="3" width="79" height="81" filterUnits="userSpaceOnUse" color-interpolation-filters="sRGB">
<feFlood flood-opacity="0" result="BackgroundImageFix"/>
<feColorMatrix in="SourceAlpha" type="matrix" values="0 0 0 0 0 0 0 0 0 0 0 0 0 0 0 0 0 0 127 0" result="hardAlpha"/>
<feOffset dx="-2" dy="3"/>
<feGaussianBlur stdDeviation="3.5"/>
<feColorMatrix type="matrix" values="0 0 0 0 0 0 0 0 0 0 0 0 0 0 0 0 0 0 0.08 0"/>
<feBlend mode="normal" in2="BackgroundImageFix" result="effect1_dropShadow_14_1056"/>
<feBlend mode="normal" in="SourceGraphic" in2="effect1_dropShadow_14_1056" result="shape"/>
</filter>
<clipPath id="clip0_14_1056">
<rect width="31" height="31" fill="white" transform="translate(26 27)"/>
</clipPath>
</defs>
</svg>
