<svg width="84" height="84" viewBox="0 0 84 84" fill="none" xmlns="http://www.w3.org/2000/svg">
<g filter="url(#filter0_d_96_10)">
<circle cx="42" cy="40" r="22" fill="white"/>
</g>
<circle cx="42" cy="40" r="26.5" stroke="#00C5DE" stroke-dasharray="5 5"/>
<path d="M37.095 48H36.095V49H37.095V48ZM47.655 48V49H48.655V48H47.655ZM47.655 45.432H48.655V44.432H47.655V45.432ZM40.671 45.432L40.0378 44.658L37.8696 46.432H40.671V45.432ZM37.215 34.992L36.2319 34.8089L36.0878 35.5828L36.8062 35.9046L37.215 34.992ZM39.519 36.024L39.1102 36.9366L40.1953 37.4226L40.4882 36.2704L39.519 36.024ZM37.095 45.792L36.3942 45.0787L36.095 45.3726V45.792H37.095ZM37.095 49H47.655V47H37.095V49ZM48.655 48V45.432H46.655V48H48.655ZM47.655 44.432H40.671V46.432H47.655V44.432ZM41.3043 46.206C41.9809 45.6524 43.6307 44.2668 45.1168 42.3973C46.5851 40.5503 48.007 38.0906 48.007 35.4H46.007C46.007 37.4134 44.9209 39.4297 43.5512 41.1527C42.1994 42.8532 40.6812 44.1316 40.0378 44.658L41.3043 46.206ZM48.007 35.4C48.007 34.0553 47.5366 32.6991 46.5482 31.6732C45.5487 30.6357 44.0893 30.008 42.255 30.008V32.008C43.6128 32.008 44.5294 32.4603 45.1079 33.0608C45.6975 33.6729 46.007 34.5127 46.007 35.4H48.007ZM42.255 30.008C39.1494 30.008 36.7833 31.849 36.2319 34.8089L38.1981 35.1751C38.5588 33.239 40.0326 32.008 42.255 32.008V30.008ZM36.8062 35.9046L39.1102 36.9366L39.9278 35.1114L37.6238 34.0794L36.8062 35.9046ZM40.4882 36.2704C40.6345 35.6949 40.8633 35.3174 41.1016 35.093C41.3255 34.8822 41.5957 34.768 41.943 34.768V32.768C41.0903 32.768 40.3285 33.0738 39.7305 33.637C39.1468 34.1866 38.7636 34.9371 38.5499 35.7776L40.4882 36.2704ZM41.943 34.768C42.4348 34.768 42.6807 34.9111 42.8089 35.0457C42.9444 35.1879 43.079 35.4586 43.079 35.952H45.079C45.079 35.1014 44.8417 34.2801 44.2572 33.6663C43.6653 33.0449 42.8432 32.768 41.943 32.768V34.768ZM43.079 35.952C43.079 37.2045 42.2323 38.7519 40.8391 40.4548C39.4791 42.117 37.7865 43.7108 36.3942 45.0787L37.7959 46.5053C39.1396 45.1852 40.939 43.491 42.387 41.7212C43.8017 39.9921 45.079 37.9635 45.079 35.952H43.079ZM36.095 45.792V48H38.095V45.792H36.095Z" fill="#00C5DE"/>
<defs>
<filter id="filter0_d_96_10" x="0" y="0" width="84" height="84" filterUnits="userSpaceOnUse" color-interpolation-filters="sRGB">
<feFlood flood-opacity="0" result="BackgroundImageFix"/>
<feColorMatrix in="SourceAlpha" type="matrix" values="0 0 0 0 0 0 0 0 0 0 0 0 0 0 0 0 0 0 127 0" result="hardAlpha"/>
<feOffset dy="2"/>
<feGaussianBlur stdDeviation="10"/>
<feComposite in2="hardAlpha" operator="out"/>
<feColorMatrix type="matrix" values="0 0 0 0 0 0 0 0 0 0 0 0 0 0 0 0 0 0 0.11 0"/>
<feBlend mode="normal" in2="BackgroundImageFix" result="effect1_dropShadow_96_10"/>
<feBlend mode="normal" in="SourceGraphic" in2="effect1_dropShadow_96_10" result="shape"/>
</filter>
</defs>
</svg>
