<svg width="58" height="59" viewBox="0 0 58 59" fill="none" xmlns="http://www.w3.org/2000/svg"> <g filter="url(#filter0_d_95_9)"> <circle cx="31" cy="27" r="22" fill="white"/> </g> <circle cx="31" cy="27" r="26.5" stroke="#00C5DE" stroke-dasharray="5 5"/> <path d="M26.8639 21.368L26.2647 20.5675L25.5196 21.1252L26.0225 21.9083L26.8639 21.368ZM28.3279 23.648L27.4865 24.1883L28.0697 25.0967L28.9309 24.4458L28.3279 23.648ZM30.3919 22.088H31.3919V20.0787L29.789 21.2902L30.3919 22.088ZM30.3919 35H29.3919V36H30.3919V35ZM33.1519 35V36H34.1519V35H33.1519ZM33.1519 18.152H34.1519V17.152H33.1519V18.152ZM31.1599 18.152V17.152H30.8271L30.5607 17.3515L31.1599 18.152ZM26.0225 21.9083L27.4865 24.1883L29.1694 23.1077L27.7054 20.8277L26.0225 21.9083ZM28.9309 24.4458L30.9949 22.8858L29.789 21.2902L27.725 22.8502L28.9309 24.4458ZM29.3919 22.088V35H31.3919V22.088H29.3919ZM30.3919 36H33.1519V34H30.3919V36ZM34.1519 35V18.152H32.1519V35H34.1519ZM33.1519 17.152H31.1599V19.152H33.1519V17.152ZM30.5607 17.3515L26.2647 20.5675L27.4632 22.1685L31.7592 18.9525L30.5607 17.3515Z"  fill="#00C5DE"/> <defs> <filter id="filter0_d_95_9" x="0" y="1" width="58" height="58" filterUnits="userSpaceOnUse" color-interpolation-filters="sRGB"> <feFlood flood-opacity="0" result="BackgroundImageFix"/> <feColorMatrix in="SourceAlpha" type="matrix" values="0 0 0 0 0 0 0 0 0 0 0 0 0 0 0 0 0 0 127 0" result="hardAlpha"/> <feOffset dx="-2" dy="3"/> <feGaussianBlur stdDeviation="3.5"/> <feColorMatrix type="matrix" values="0 0 0 0 0 0 0 0 0 0 0 0 0 0 0 0 0 0 0.08 0"/> <feBlend mode="normal" in2="BackgroundImageFix" result="effect1_dropShadow_95_9"/> <feBlend mode="normal" in="SourceGraphic" in2="effect1_dropShadow_95_9" result="shape"/> </filter> </defs> </svg>