<svg width="84" height="84" viewBox="0 0 84 84" fill="none" xmlns="http://www.w3.org/2000/svg">
<g filter="url(#filter0_d_96_11)">
<circle cx="42" cy="40" r="22" fill="white"/>
</g>
<circle cx="42" cy="40" r="26.5" stroke="#00C5DE" stroke-dasharray="5 5"/>
<path d="M44.2727 39.264H43.2727V40.1063L44.1028 40.2495L44.2727 39.264ZM44.2727 39.192L43.8726 38.2755L43.2727 38.5375V39.192H44.2727ZM37.0487 33.552L36.1671 33.0801L35.8579 33.6578L36.2641 34.172L37.0487 33.552ZM38.5847 35.496L37.8001 36.116L38.6414 37.1807L39.4092 36.0618L38.5847 35.496ZM40.2167 38.04V37.04H39.2167V38.04H40.2167ZM40.2167 40.8H39.2167V41.8H40.2167V40.8ZM38.2247 43.416L39.0543 42.8576L38.2812 41.709L37.4338 42.804L38.2247 43.416ZM36.6647 45.432L35.8738 44.82L35.482 45.3264L35.7779 45.8941L36.6647 45.432ZM41.9927 49.264C43.7399 49.264 45.3603 48.7283 46.5591 47.6826C47.7718 46.6247 48.4887 45.0981 48.4887 43.272H46.4887C46.4887 44.5419 46.0056 45.5113 45.2444 46.1754C44.4692 46.8517 43.3415 47.264 41.9927 47.264V49.264ZM48.4887 43.272C48.4887 40.8752 47.0867 38.7344 44.4426 38.2785L44.1028 40.2495C45.6347 40.5136 46.4887 41.6848 46.4887 43.272H48.4887ZM45.2727 39.264V39.192H43.2727V39.264H45.2727ZM44.6729 40.1085C45.6746 39.6711 46.4838 39.0314 47.0364 38.1735C47.5881 37.3171 47.8407 36.3104 47.8407 35.208H45.8407C45.8407 36.0016 45.6614 36.6149 45.355 37.0905C45.0496 37.5646 44.5749 37.9689 43.8726 38.2755L44.6729 40.1085ZM47.8407 35.208C47.8407 33.6256 47.249 32.2731 46.1661 31.3284C45.0981 30.3968 43.6397 29.936 42.0167 29.936V31.936C43.2738 31.936 44.2274 32.2912 44.8513 32.8356C45.4605 33.3669 45.8407 34.1504 45.8407 35.208H47.8407ZM42.0167 29.936C39.4354 29.936 37.2924 30.9776 36.1671 33.0801L37.9304 34.0239C38.6291 32.7184 39.99 31.936 42.0167 31.936V29.936ZM36.2641 34.172L37.8001 36.116L39.3694 34.876L37.8334 32.932L36.2641 34.172ZM39.4092 36.0618C39.7683 35.5387 40.1206 35.2085 40.4764 35.0049C40.8251 34.8054 41.2316 34.696 41.7527 34.696V32.696C40.9298 32.696 40.1723 32.8746 39.483 33.2691C38.8008 33.6595 38.2412 34.2293 37.7602 34.9302L39.4092 36.0618ZM41.7527 34.696C42.2774 34.696 42.5273 34.8447 42.6477 34.9671C42.7724 35.0939 42.8887 35.3255 42.8887 35.736H44.8887C44.8887 34.9465 44.6571 34.1581 44.0737 33.5649C43.4862 32.9673 42.668 32.696 41.7527 32.696V34.696ZM42.8887 35.736C42.8887 36.4576 42.2947 37.04 41.2967 37.04V39.04C43.0347 39.04 44.8887 37.8944 44.8887 35.736H42.8887ZM41.2967 37.04H40.2167V39.04H41.2967V37.04ZM39.2167 38.04V40.8H41.2167V38.04H39.2167ZM40.2167 41.8H41.4167V39.8H40.2167V41.8ZM41.4167 41.8C42.2639 41.8 42.8034 41.9857 43.1064 42.2125C43.369 42.4091 43.5367 42.6943 43.5367 43.176H45.5367C45.5367 42.1217 45.1164 41.2189 44.305 40.6115C43.534 40.0343 42.5136 39.8 41.4167 39.8V41.8ZM43.5367 43.176C43.5367 43.5672 43.4013 43.8732 43.1732 44.0861C42.9433 44.3008 42.5284 44.504 41.8247 44.504V46.504C42.9211 46.504 43.8622 46.1792 44.5382 45.5479C45.2162 44.9148 45.5367 44.0568 45.5367 43.176H43.5367ZM41.8247 44.504C40.7652 44.504 39.7524 43.8948 39.0543 42.8576L37.3951 43.9744C38.377 45.4332 39.9563 46.504 41.8247 46.504V44.504ZM37.4338 42.804L35.8738 44.82L37.4556 46.044L39.0156 44.028L37.4338 42.804ZM35.7779 45.8941C36.8676 47.9852 39.1203 49.264 41.9927 49.264V47.264C39.7291 47.264 38.2378 46.2868 37.5515 44.9699L35.7779 45.8941Z" fill="#00C5DE"/>
<defs>
<filter id="filter0_d_96_11" x="0" y="0" width="84" height="84" filterUnits="userSpaceOnUse" color-interpolation-filters="sRGB">
<feFlood flood-opacity="0" result="BackgroundImageFix"/>
<feColorMatrix in="SourceAlpha" type="matrix" values="0 0 0 0 0 0 0 0 0 0 0 0 0 0 0 0 0 0 127 0" result="hardAlpha"/>
<feOffset dy="2"/>
<feGaussianBlur stdDeviation="10"/>
<feComposite in2="hardAlpha" operator="out"/>
<feColorMatrix type="matrix" values="0 0 0 0 0 0 0 0 0 0 0 0 0 0 0 0 0 0 0.11 0"/>
<feBlend mode="normal" in2="BackgroundImageFix" result="effect1_dropShadow_96_11"/>
<feBlend mode="normal" in="SourceGraphic" in2="effect1_dropShadow_96_11" result="shape"/>
</filter>
</defs>
</svg>
