<svg width="84" height="84" viewBox="0 0 84 84" fill="none" xmlns="http://www.w3.org/2000/svg">
<g filter="url(#filter0_d_96_12)">
<circle cx="42" cy="40" r="22" fill="white"/>
</g>
<circle cx="42" cy="40" r="26.5" stroke="#00C5DE" stroke-dasharray="5 5"/>
<path d="M43.2548 48H42.2548V49H43.2548V48ZM46.0148 48V49H47.0148V48H46.0148ZM46.0148 44.112V43.112H45.0148V44.112H46.0148ZM48.1748 44.112V45.112H49.1748V44.112H48.1748ZM48.1748 41.352H49.1748V40.352H48.1748V41.352ZM46.0148 41.352H45.0148V42.352H46.0148V41.352ZM46.0148 37.2H47.0148V36.2H46.0148V37.2ZM43.2548 37.2V36.2H42.2548V37.2H43.2548ZM43.2548 41.352V42.352H44.2548V41.352H43.2548ZM39.1508 41.352L38.2926 40.8387L37.3875 42.352H39.1508V41.352ZM45.2228 31.2L46.0811 31.7133L46.9862 30.2H45.2228V31.2ZM42.0548 31.2V30.2H41.4867L41.1958 30.688L42.0548 31.2ZM35.5748 42.072L34.7158 41.56L34.5748 41.7966V42.072H35.5748ZM35.5748 44.112H34.5748V45.112H35.5748V44.112ZM43.2548 44.112H44.2548V43.112H43.2548V44.112ZM43.2548 49H46.0148V47H43.2548V49ZM47.0148 48V44.112H45.0148V48H47.0148ZM46.0148 45.112H48.1748V43.112H46.0148V45.112ZM49.1748 44.112V41.352H47.1748V44.112H49.1748ZM48.1748 40.352H46.0148V42.352H48.1748V40.352ZM47.0148 41.352V37.2H45.0148V41.352H47.0148ZM46.0148 36.2H43.2548V38.2H46.0148V36.2ZM42.2548 37.2V41.352H44.2548V37.2H42.2548ZM43.2548 40.352H39.1508V42.352H43.2548V40.352ZM40.0091 41.8653L46.0811 31.7133L44.3646 30.6867L38.2926 40.8387L40.0091 41.8653ZM45.2228 30.2H42.0548V32.2H45.2228V30.2ZM41.1958 30.688L34.7158 41.56L36.4338 42.584L42.9138 31.712L41.1958 30.688ZM34.5748 42.072V44.112H36.5748V42.072H34.5748ZM35.5748 45.112H43.2548V43.112H35.5748V45.112ZM42.2548 44.112V48H44.2548V44.112H42.2548Z" fill="#00C5DE"/>
<defs>
<filter id="filter0_d_96_12" x="0" y="0" width="84" height="84" filterUnits="userSpaceOnUse" color-interpolation-filters="sRGB">
<feFlood flood-opacity="0" result="BackgroundImageFix"/>
<feColorMatrix in="SourceAlpha" type="matrix" values="0 0 0 0 0 0 0 0 0 0 0 0 0 0 0 0 0 0 127 0" result="hardAlpha"/>
<feOffset dy="2"/>
<feGaussianBlur stdDeviation="10"/>
<feComposite in2="hardAlpha" operator="out"/>
<feColorMatrix type="matrix" values="0 0 0 0 0 0 0 0 0 0 0 0 0 0 0 0 0 0 0.11 0"/>
<feBlend mode="normal" in2="BackgroundImageFix" result="effect1_dropShadow_96_12"/>
<feBlend mode="normal" in="SourceGraphic" in2="effect1_dropShadow_96_12" result="shape"/>
</filter>
</defs>
</svg>
